<svg width="35" height="43" viewBox="0 0 35 43" fill="none" xmlns="http://www.w3.org/2000/svg">
<path d="M27.7083 7.16668H21.6125C21 5.08834 19.3958 3.58334 17.5 3.58334C15.6042 3.58334 14 5.08834 13.3875 7.16668H7.29167C5.6875 7.16668 4.375 8.77918 4.375 10.75V35.8333C4.375 37.8042 5.6875 39.4167 7.29167 39.4167H27.7083C29.3125 39.4167 30.625 37.8042 30.625 35.8333V10.75C30.625 8.77918 29.3125 7.16668 27.7083 7.16668ZM17.5 6.71876C17.8208 6.71876 18.0979 6.89793 18.3021 7.16668C18.4771 7.39959 18.5938 7.72209 18.5938 8.06251C18.5938 8.79709 18.0979 9.40626 17.5 9.40626C16.9021 9.40626 16.4062 8.79709 16.4062 8.06251C16.4062 7.72209 16.5229 7.39959 16.6979 7.16668C16.9021 6.89793 17.1792 6.71876 17.5 6.71876ZM27.7083 35.8333H7.29167V10.75H27.7083V35.8333ZM17.5 12.5417C15.0938 12.5417 13.125 14.9604 13.125 17.9167C13.125 20.8729 15.0938 23.2917 17.5 23.2917C19.9062 23.2917 21.875 20.8729 21.875 17.9167C21.875 14.9604 19.9062 12.5417 17.5 12.5417ZM17.5 19.7083C16.6979 19.7083 16.0417 18.9021 16.0417 17.9167C16.0417 16.9313 16.6979 16.125 17.5 16.125C18.3021 16.125 18.9583 16.9313 18.9583 17.9167C18.9583 18.9021 18.3021 19.7083 17.5 19.7083ZM8.75 31.3004V34.0417H26.25V31.3004C26.25 26.8213 20.4604 24.8863 17.5 24.8863C14.5396 24.8863 8.75 26.8033 8.75 31.3004ZM12.1188 30.4583C13.125 29.455 15.5896 28.4517 17.5 28.4517C19.4104 28.4517 21.8896 29.455 22.8813 30.4583H12.1188Z" fill="black"/>
</svg>
